<svg width="19" height="16" viewBox="0 0 19 16" fill="none" xmlns="http://www.w3.org/2000/svg">
<path d="M9.25728 15.5C7.9039 15.5 6.67833 15.344 5.58059 15.0319C4.49788 14.7199 3.55803 14.2519 2.76104 13.6278C1.97909 13.0037 1.37758 12.2311 0.95653 11.3098C0.535477 10.3886 0.324951 9.32615 0.324951 8.12259C0.324951 6.90416 0.542996 5.82689 0.979086 4.89079C1.43021 3.93982 2.06179 3.13744 2.87382 2.48365C3.70089 1.82987 4.67833 1.33952 5.80615 1.01263C6.94901 0.670877 8.21217 0.5 9.59563 0.5C11.2347 0.5 12.6483 0.730312 13.8362 1.19094C15.0242 1.6367 15.9565 2.2682 16.6332 3.08544C17.325 3.90267 17.7159 4.87593 17.8062 6.0052H14.9189C14.7234 5.41085 14.4001 4.89822 13.949 4.46731C13.5129 4.02155 12.934 3.67979 12.2122 3.44205C11.4904 3.18945 10.6182 3.06315 9.59563 3.06315C8.28736 3.06315 7.16706 3.27117 6.23473 3.68722C5.31743 4.10327 4.61818 4.69019 4.13698 5.44799C3.65578 6.20579 3.41518 7.09733 3.41518 8.12259C3.41518 9.11813 3.6257 9.97994 4.04676 10.708C4.46781 11.4212 5.11442 11.971 5.98661 12.3574C6.87382 12.7437 8.00164 12.9368 9.37006 12.9368C10.4227 12.9368 11.3475 12.8031 12.1445 12.5357C12.9565 12.2533 13.6332 11.8819 14.1746 11.4212C14.7159 10.9458 15.0994 10.4183 15.325 9.83878L16.4979 9.4153C16.3024 11.3321 15.5656 12.8254 14.2874 13.8952C13.0242 14.9651 11.3475 15.5 9.25728 15.5ZM15.731 15.2103C15.731 14.7496 15.761 14.2221 15.8212 13.6278C15.8813 13.0186 15.9565 12.4094 16.0468 11.8001C16.137 11.1761 16.2197 10.604 16.2949 10.084H9.61818V8.18945H18.325V15.2103H15.731Z" fill="white"/>
</svg>
